<svg width="14" height="13" viewBox="0 0 14 13" xmlns="http://www.w3.org/2000/svg">
  <path
    d="M.4.813C.16.813 0 .65 0 .406 0 .162.16 0 .4 0h13.2c.24 0 .4.163.4.406 0 .244-.16.406-.4.406H.4zm3 3c-.24 0-.4-.163-.4-.407C3 3.162 3.16 3 3.4 3h8c.24 0 .4.163.4.406 0 .244-.16.406-.4.406h-8zm-3 3c-.24 0-.4-.163-.4-.407C0 6.162.16 6 .4 6h13.2c.24 0 .4.162.4.406 0 .244-.16.407-.4.407H.4zm3 3c-.24 0-.4-.163-.4-.407C3 9.162 3.16 9 3.4 9h8c.24 0 .4.162.4.406 0 .244-.16.406-.4.406h-8zm-3 3c-.24 0-.4-.163-.4-.407C0 12.162.16 12 .4 12h13.2c.24 0 .4.162.4.406 0 .244-.16.406-.4.406H.4z"
    fill="currentColor"
    fillRule="nonzero"
  />
</svg>
