<?xml version="1.0" encoding="UTF-8"?>
<svg width="25px" height="27px" viewBox="0 0 25 27" version="1.1" xmlns="http://www.w3.org/2000/svg" xmlns:xlink="http://www.w3.org/1999/xlink">
    <g stroke="none" stroke-width="1" fill="none" fill-rule="evenodd">
        <g transform="translate(-17.000000, -270.000000)" fill="#000000" fill-rule="nonzero">
            <g transform="translate(0.000000, 99.000000)">
                <g transform="translate(17.000000, 171.000000)">
                    <path d="M8.49385673,1.6875 C8.8608913,1.6875 9.17065806,2.00126953 9.17065806,2.37304688 L9.17065806,8.60361328 C9.17065806,8.97539063 8.8608913,9.28916016 8.49385673,9.28916016 L2.34277384,9.28916016 C1.97573928,9.28916016 1.66597251,8.97539063 1.66597251,8.60361328 L1.66597251,2.37304688 C1.66597251,2.00126953 1.97573928,1.6875 2.34277384,1.6875 L8.49385673,1.6875 M8.49385673,0 L2.34277384,0 C1.05424823,0 0,1.06787109 0,2.37304688 L0,8.60361328 C0,9.90878906 1.05424823,10.9766602 2.34277384,10.9766602 L8.49385673,10.9766602 C9.78238234,10.9766602 10.8366306,9.90878906 10.8366306,8.60361328 L10.8366306,2.37304688 C10.8366306,1.06787109 9.78238234,0 8.49385673,0 Z M22.6572262,1.6875 C23.0242607,1.6875 23.3340275,2.00126953 23.3340275,2.37304688 L23.3340275,8.60361328 C23.3340275,8.97539063 23.0242607,9.28916016 22.6572262,9.28916016 L16.5061433,9.28916016 C16.1391087,9.28916016 15.8293419,8.97539063 15.8293419,8.60361328 L15.8293419,2.37304688 C15.8293419,2.00126953 16.1391087,1.6875 16.5061433,1.6875 L22.6572262,1.6875 M22.6572262,0 L16.5061433,0 C15.2176177,0 14.1633694,1.06787109 14.1633694,2.37304688 L14.1633694,8.60361328 C14.1633694,9.90878906 15.2176177,10.9766602 16.5061433,10.9766602 L22.6572262,10.9766602 C23.9457518,10.9766602 25,9.90878906 25,8.60361328 L25,2.37304688 C25,1.06787109 23.9457518,0 22.6572262,0 Z M8.49385673,17.7108398 C8.8608913,17.7108398 9.17065806,18.0246094 9.17065806,18.3963867 L9.17065806,24.6269531 C9.17065806,24.9987305 8.8608913,25.3125 8.49385673,25.3125 L2.34277384,25.3125 C1.97573928,25.3125 1.66597251,24.9987305 1.66597251,24.6269531 L1.66597251,18.3963867 C1.66597251,18.0246094 1.97573928,17.7108398 2.34277384,17.7108398 L8.49385673,17.7108398 M8.49385673,16.0233398 L2.34277384,16.0233398 C1.05424823,16.0233398 0,17.0912109 0,18.3963867 L0,24.6269531 C0,25.9321289 1.05424823,27 2.34277384,27 L8.49385673,27 C9.78238234,27 10.8366306,25.9321289 10.8366306,24.6269531 L10.8366306,18.3963867 C10.8366306,17.0912109 9.78238234,16.0233398 8.49385673,16.0233398 Z M14.9937526,16.03125 C14.5356102,16.03125 14.1607663,16.4109375 14.1607663,16.875 L14.1607663,26.15625 C14.1607663,26.6203125 14.5356102,27 14.9937526,27 C15.451895,27 15.8267389,26.6203125 15.8267389,26.15625 L15.8267389,16.875 C15.8267389,16.4109375 15.451895,16.03125 14.9937526,16.03125 Z M19.9968763,22.2539062 C19.5387339,22.2539062 19.16389,22.6335937 19.16389,23.0976562 L19.16389,26.15625 C19.16389,26.6203125 19.5387339,27 19.9968763,27 C20.4550187,27 20.8298626,26.6203125 20.8298626,26.15625 L20.8298626,23.0976562 C20.8298626,22.6335937 20.4550187,22.2539062 19.9968763,22.2539062 Z M19.9968763,16.0417969 C19.5387339,16.0417969 19.16389,16.4214844 19.16389,16.8855469 L19.16389,19.9441406 C19.16389,20.4082031 19.5387339,20.7878906 19.9968763,20.7878906 C20.4550187,20.7878906 20.8298626,20.4082031 20.8298626,19.9441406 L20.8298626,16.8855469 C20.8298626,16.4214844 20.4550187,16.0417969 19.9968763,16.0417969 Z M24.1383798,16.03125 C23.6802374,16.03125 23.3053936,16.4109375 23.3053936,16.875 L23.3053936,26.15625 C23.3053936,26.6203125 23.6802374,27 24.1383798,27 C24.5965223,27 24.9713661,26.6203125 24.9713661,26.15625 L24.9713661,16.875 C24.9713661,16.4109375 24.5965223,16.03125 24.1383798,16.03125 Z M24.0004165,12.65625 L0.989171179,12.65625 C0.531028738,12.65625 0.156184923,13.0359375 0.156184923,13.5 C0.156184923,13.9640625 0.531028738,14.34375 0.989171179,14.34375 L24.0004165,14.34375 C24.4585589,14.34375 24.8334027,13.9640625 24.8334027,13.5 C24.8334027,13.0359375 24.4585589,12.65625 24.0004165,12.65625 Z"></path>
                </g>
            </g>
        </g>
    </g>
</svg>
