<?xml version="1.0" encoding="UTF-8"?>
<svg width="30px" height="30px" viewBox="0 0 30 30" version="1.1" xmlns="http://www.w3.org/2000/svg" xmlns:xlink="http://www.w3.org/1999/xlink">
    <g stroke="none" stroke-width="1" fill="none" fill-rule="evenodd">
        <g transform="translate(-15.000000, -174.000000)" fill="#000000" fill-rule="nonzero">
            <g transform="translate(0.000000, 99.000000)">
                <g transform="translate(15.000000, 75.000000)">
                    <g >
                        <path d="M0.96670247,13.9205156 C0.96670247,14.1783029 1.19226638,14.4038668 1.45005371,14.4038668 C1.70784103,14.4038668 1.93340494,14.1783029 1.93340494,13.9205156 L1.93340494,12.9538131 C1.93340494,12.6960258 1.70784103,12.4704619 1.45005371,12.4704619 C1.19226638,12.4704619 0.96670247,12.6960258 0.96670247,12.9538131 L0.96670247,13.9205156 Z M0.96670247,10.8270677 C0.96670247,11.084855 1.19226638,11.3104189 1.45005371,11.3104189 C1.70784103,11.3104189 1.93340494,11.084855 1.93340494,10.8270677 L1.93340494,9.8603652 C1.93340494,9.60257787 1.70784103,9.37701396 1.45005371,9.37701396 C1.19226638,9.37701396 0.96670247,9.60257787 0.96670247,9.8603652 L0.96670247,10.8270677 Z M0.96670247,17.0139635 C0.96670247,17.2717508 1.19226638,17.4973147 1.45005371,17.4973147 C1.70784103,17.4973147 1.93340494,17.2717508 1.93340494,17.0139635 L1.93340494,16.047261 C1.93340494,15.7894737 1.70784103,15.5639098 1.45005371,15.5639098 C1.19226638,15.5639098 0.96670247,15.7894737 0.96670247,16.047261 L0.96670247,17.0139635 Z M1.45005371,8.18474758 C1.70784103,8.18474758 1.93340494,7.95918367 1.93340494,7.70139635 L1.93340494,6.73469388 C1.90118153,6.47690655 1.70784103,6.28356606 1.45005371,6.28356606 C1.19226638,6.28356606 0.96670247,6.50912997 0.96670247,6.76691729 L0.96670247,7.73361976 C0.96670247,7.99140709 1.16004296,8.18474758 1.45005371,8.18474758 Z M0.96670247,20.1074114 C0.96670247,20.3651987 1.19226638,20.5907626 1.45005371,20.5907626 C1.70784103,20.5907626 1.93340494,20.3651987 1.93340494,20.1074114 L1.93340494,19.1407089 C1.93340494,18.8829216 1.70784103,18.6573577 1.45005371,18.6573577 C1.19226638,18.6573577 0.96670247,18.8829216 0.96670247,19.1407089 L0.96670247,20.1074114 Z M0.96670247,23.2008593 C0.96670247,23.49087 1.16004296,23.6842105 1.45005371,23.6842105 C1.70784103,23.6842105 1.93340494,23.4586466 1.93340494,23.2008593 L1.93340494,22.2341568 C1.93340494,21.9763695 1.70784103,21.7508056 1.45005371,21.7508056 C1.19226638,21.7508056 0.96670247,21.9763695 0.96670247,22.2341568 L0.96670247,23.2008593 Z M28.0665951,13.9205156 C28.0665951,14.1783029 28.292159,14.4038668 28.5499463,14.4038668 C28.8077336,14.4038668 29.0332975,14.1783029 29.0332975,13.9205156 L29.0332975,12.9538131 C29.0332975,12.6960258 28.8077336,12.4704619 28.5499463,12.4704619 C28.292159,12.4704619 28.0665951,12.6960258 28.0665951,12.9538131 L28.0665951,13.9205156 Z M28.0665951,10.8270677 C28.0665951,11.084855 28.292159,11.3104189 28.5499463,11.3104189 C28.8077336,11.3104189 29.0332975,11.084855 29.0332975,10.8270677 L29.0332975,9.8603652 C29.0332975,9.60257787 28.8077336,9.37701396 28.5499463,9.37701396 C28.292159,9.37701396 28.0665951,9.60257787 28.0665951,9.8603652 L28.0665951,10.8270677 Z M28.0665951,17.0139635 C28.0665951,17.2717508 28.292159,17.4973147 28.5499463,17.4973147 C28.8077336,17.4973147 29.0332975,17.2717508 29.0332975,17.0139635 L29.0332975,16.047261 C29.0332975,15.7894737 28.8077336,15.5639098 28.5499463,15.5639098 C28.292159,15.5639098 28.0665951,15.7894737 28.0665951,16.047261 L28.0665951,17.0139635 Z M28.5177229,8.18474758 C28.7755102,8.18474758 29.0010741,7.95918367 29.0010741,7.70139635 L29.0010741,6.73469388 C29.0010741,6.47690655 28.7755102,6.25134264 28.5177229,6.25134264 C28.2599356,6.25134264 28.0343716,6.47690655 28.0343716,6.73469388 L28.0343716,7.70139635 C28.0665951,7.99140709 28.2599356,8.18474758 28.5177229,8.18474758 Z M28.0665951,20.1074114 C28.0665951,20.3651987 28.292159,20.5907626 28.5499463,20.5907626 C28.8077336,20.5907626 29.0332975,20.3651987 29.0332975,20.1074114 L29.0332975,19.1407089 C29.0332975,18.8829216 28.8077336,18.6573577 28.5499463,18.6573577 C28.292159,18.6573577 28.0665951,18.8829216 28.0665951,19.1407089 L28.0665951,20.1074114 Z M28.0665951,23.2008593 C28.0665951,23.4586466 28.292159,23.6842105 28.5499463,23.6842105 C28.8077336,23.6842105 29.0332975,23.4586466 29.0332975,23.2008593 L29.0332975,22.2341568 C29.0332975,21.9763695 28.8077336,21.7508056 28.5499463,21.7508056 C28.292159,21.7508056 28.0665951,21.9763695 28.0665951,22.2341568 L28.0665951,23.2008593 Z M13.9205156,28.0665951 L12.9538131,28.0665951 C12.6960258,28.0665951 12.4704619,28.292159 12.4704619,28.5499463 C12.4704619,28.8077336 12.6960258,29.0332975 12.9538131,29.0332975 L13.9205156,29.0332975 C14.1783029,29.0332975 14.4038668,28.8077336 14.4038668,28.5499463 C14.4038668,28.292159 14.1783029,28.0665951 13.9205156,28.0665951 Z M10.8270677,28.0665951 L9.8603652,28.0665951 C9.60257787,28.0665951 9.37701396,28.292159 9.37701396,28.5499463 C9.37701396,28.8077336 9.60257787,29.0332975 9.8603652,29.0332975 L10.8270677,29.0332975 C11.084855,29.0332975 11.3104189,28.8077336 11.3104189,28.5499463 C11.3104189,28.292159 11.084855,28.0665951 10.8270677,28.0665951 Z M17.0139635,28.0665951 L16.047261,28.0665951 C15.7894737,28.0665951 15.5639098,28.292159 15.5639098,28.5499463 C15.5639098,28.8077336 15.7894737,29.0332975 16.047261,29.0332975 L17.0139635,29.0332975 C17.2717508,29.0332975 17.4973147,28.8077336 17.4973147,28.5499463 C17.4973147,28.292159 17.2717508,28.0665951 17.0139635,28.0665951 Z M7.70139635,28.0665951 L6.73469388,28.0665951 C6.47690655,28.0665951 6.25134264,28.292159 6.25134264,28.5499463 C6.25134264,28.8077336 6.47690655,29.0332975 6.73469388,29.0332975 L7.70139635,29.0332975 C7.95918367,29.0332975 8.18474758,28.8077336 8.18474758,28.5499463 C8.18474758,28.292159 7.99140709,28.0665951 7.70139635,28.0665951 Z M4.64017186,27.7443609 L3.19011815,27.7443609 L3.19011815,27.2932331 C3.19011815,27.0032223 2.96455424,26.7776584 2.6745435,26.7776584 L1.90118153,26.7776584 L1.90118153,25.2309345 C1.90118153,24.9409237 1.67561762,24.7153598 1.41783029,24.7153598 C1.16004296,24.7153598 0.934479055,24.9409237 0.934479055,25.2309345 L0.934479055,26.7776584 L0.515574651,26.7776584 C0.22556391,26.7776584 0,27.0032223 0,27.2932331 L0,29.4522019 C0,29.7422127 0.22556391,29.9677766 0.515574651,29.9677766 L2.6745435,29.9677766 C2.96455424,29.9677766 3.19011815,29.7422127 3.19011815,29.4522019 L3.19011815,29.0010741 L4.64017186,29.0010741 C4.9301826,28.9366273 5.15574651,28.67884 5.15574651,28.4210526 C5.15574651,28.1310419 4.64017186,27.7443609 4.64017186,27.7443609 Z M20.1074114,28.0665951 L19.1407089,28.0665951 C18.8829216,28.0665951 18.6573577,28.292159 18.6573577,28.5499463 C18.6573577,28.8077336 18.8829216,29.0332975 19.1407089,29.0332975 L20.1074114,29.0332975 C20.3651987,29.0332975 20.5907626,28.8077336 20.5907626,28.5499463 C20.5907626,28.292159 20.3651987,28.0665951 20.1074114,28.0665951 Z M23.2008593,28.0665951 L22.2341568,28.0665951 C21.9763695,28.0665951 21.7508056,28.292159 21.7508056,28.5499463 C21.7508056,28.8077336 21.9763695,29.0332975 22.2341568,29.0332975 L23.2008593,29.0332975 C23.4586466,29.0332975 23.6842105,28.8077336 23.6842105,28.5499463 C23.6842105,28.292159 23.49087,28.0665951 23.2008593,28.0665951 Z M12.9538131,1.90118153 L13.9205156,1.90118153 C14.1783029,1.90118153 14.4038668,1.67561762 14.4038668,1.41783029 C14.4038668,1.16004296 14.1783029,0.934479055 13.9205156,0.934479055 L12.9538131,0.934479055 C12.6960258,0.934479055 12.4704619,1.16004296 12.4704619,1.41783029 C12.4704619,1.67561762 12.6960258,1.90118153 12.9538131,1.90118153 Z M9.8603652,1.90118153 L10.8270677,1.90118153 C11.084855,1.90118153 11.3104189,1.67561762 11.3104189,1.41783029 C11.3104189,1.16004296 11.084855,0.934479055 10.8270677,0.934479055 L9.8603652,0.934479055 C9.60257787,0.934479055 9.37701396,1.16004296 9.37701396,1.41783029 C9.37701396,1.67561762 9.60257787,1.90118153 9.8603652,1.90118153 Z M16.047261,1.90118153 L17.0139635,1.90118153 C17.2717508,1.90118153 17.4973147,1.67561762 17.4973147,1.41783029 C17.4973147,1.16004296 17.2717508,0.934479055 17.0139635,0.934479055 L16.047261,0.934479055 C15.7894737,0.934479055 15.5639098,1.16004296 15.5639098,1.41783029 C15.5639098,1.67561762 15.7894737,1.90118153 16.047261,1.90118153 Z M6.76691729,1.90118153 L7.73361976,1.90118153 C7.99140709,1.90118153 8.216971,1.67561762 8.216971,1.41783029 C8.216971,1.16004296 7.99140709,0.934479055 7.73361976,0.934479055 L6.76691729,0.934479055 C6.47690655,0.96670247 6.28356606,1.16004296 6.28356606,1.45005371 C6.28356606,1.74006445 6.47690655,1.90118153 6.76691729,1.90118153 Z M4.60794844,0.96670247 L3.15789474,0.96670247 L3.15789474,0.515574651 C3.15789474,0.22556391 2.93233083,0 2.64232009,0 L0.515574651,0 C0.22556391,0 0,0.22556391 0,0.515574651 L0,2.6745435 C0,2.96455424 0.22556391,3.19011815 0.515574651,3.19011815 L0.96670247,3.19011815 L0.96670247,4.64017186 C1.0311493,4.9301826 1.28893663,5.15574651 1.54672395,5.15574651 C1.80451128,5.15574651 2.22341568,4.64017186 2.22341568,4.64017186 L2.22341568,3.19011815 L2.6745435,3.19011815 C2.96455424,3.19011815 3.19011815,2.96455424 3.19011815,2.6745435 L3.19011815,1.90118153 L4.64017186,1.90118153 C4.89795918,1.90118153 5.12352309,1.67561762 5.12352309,1.41783029 C5.09129968,1.16004296 4.89795918,0.96670247 4.60794844,0.96670247 L4.60794844,0.96670247 Z M19.1407089,1.90118153 L20.1074114,1.90118153 C20.3651987,1.90118153 20.5907626,1.67561762 20.5907626,1.41783029 C20.5907626,1.16004296 20.3651987,0.934479055 20.1074114,0.934479055 L19.1407089,0.934479055 C18.8829216,0.934479055 18.6573577,1.16004296 18.6573577,1.41783029 C18.6573577,1.67561762 18.8829216,1.90118153 19.1407089,1.90118153 Z M22.2663802,1.90118153 L23.2330827,1.90118153 C23.49087,1.90118153 23.6842105,1.70784103 23.6842105,1.45005371 C23.6842105,1.19226638 23.4586466,0.96670247 23.2008593,0.96670247 L22.2341568,0.96670247 C21.9763695,0.96670247 21.7508056,1.19226638 21.7508056,1.45005371 C21.7508056,1.70784103 21.9763695,1.90118153 22.2663802,1.90118153 Z M29.4522019,0 L27.2932331,0 C27.0032223,0 26.7776584,0.22556391 26.7776584,0.515574651 L26.7776584,0.96670247 L25.3276047,0.96670247 C25.037594,1.0311493 24.8120301,1.28893663 24.8120301,1.54672395 C24.8120301,1.80451128 25.3276047,2.22341568 25.3276047,2.22341568 L26.7776584,2.22341568 L26.7776584,2.6745435 C26.7776584,2.96455424 27.0032223,3.19011815 27.2932331,3.19011815 L28.0665951,3.19011815 L28.0665951,4.73684211 C28.0665951,5.02685285 28.292159,5.25241676 28.5499463,5.25241676 C28.8077336,5.25241676 29.0332975,5.02685285 29.0332975,4.73684211 L29.0332975,3.19011815 L29.4844253,3.19011815 C29.7744361,3.19011815 30,2.96455424 30,2.6745435 L30,0.515574651 C29.9677766,0.22556391 29.7422127,0 29.4522019,0 L29.4522019,0 Z M29.4522019,26.7776584 L29.0010741,26.7776584 L29.0010741,25.3276047 C28.9366273,25.037594 28.67884,24.8120301 28.4210526,24.8120301 C28.1310419,24.8120301 27.7443609,25.3276047 27.7443609,25.3276047 L27.7443609,26.7776584 L27.2932331,26.7776584 C27.0032223,26.7776584 26.7776584,27.0032223 26.7776584,27.2932331 L26.7776584,28.0665951 L25.3276047,28.0665951 C25.0698174,28.0665951 24.8442535,28.292159 24.8442535,28.5499463 C24.8442535,28.8077336 25.0698174,29.0332975 25.3276047,29.0332975 L26.7776584,29.0332975 L26.7776584,29.4844253 C26.7776584,29.7744361 27.0032223,30 27.2932331,30 L29.4522019,30 C29.7422127,30 29.9677766,29.7744361 29.9677766,29.4844253 L29.9677766,27.3254565 C29.9677766,27.0032223 29.7422127,26.7776584 29.4522019,26.7776584 L29.4522019,26.7776584 Z"></path>
                    </g>
                    <g transform="translate(6.666667, 6.666667)">
                        <path d="M3.75971023,0.000697337395 C2.42523431,-0.0252557415 1.1809177,0.674831823 0.506107587,1.83126581 C-0.168702529,2.98769979 -0.168702529,4.42001952 0.506107587,5.5764535 C1.1809177,6.73288748 2.42523431,7.43297504 3.75971023,7.40702197 C5.76848667,7.36795499 7.37658905,5.72149006 7.37658905,3.70385965 C7.37658905,1.68622924 5.76848667,0.0397643094 3.75971023,0.000697337395 Z M11.1349163,0.000697337395 C10.1156913,0.000697337395 9.29146055,0.829794619 9.29146055,1.8519313 L9.29146055,5.555788 C9.29146055,6.57931346 10.1156913,7.40702197 11.1349163,7.40702197 L14.8232109,7.40702197 C15.8410529,7.40702197 16.6666667,6.57931346 16.6666667,5.555788 L16.6666667,1.8519313 C16.6666667,0.829794619 15.8410529,0.000697337395 14.8232109,0.000697337395 L11.1349163,0.000697337395 Z M3.75971023,9.2596447 C2.42523431,9.23369162 1.1809177,9.93377919 0.506107587,11.0902132 C-0.168702529,12.2466472 -0.168702529,13.6789669 0.506107587,14.8354009 C1.1809177,15.9918348 2.42523431,16.6919224 3.75971023,16.6659693 C5.76848667,16.6269024 7.37658905,14.9804374 7.37658905,12.962807 C7.37658905,10.9451766 5.76848667,9.29871167 3.75971023,9.2596447 Z M12.9783721,9.2596447 C11.6438962,9.23369162 10.3995796,9.93377919 9.7247695,11.0902132 C9.04995938,12.2466472 9.04995938,13.6789669 9.7247695,14.8354009 C10.3995796,15.9918348 11.6438962,16.6919224 12.9783721,16.6659693 C14.9871486,16.6269024 16.595251,14.9804374 16.595251,12.962807 C16.595251,10.9451766 14.9871486,9.29871167 12.9783721,9.2596447 L12.9783721,9.2596447 Z"></path>
                    </g>
                </g>
            </g>
        </g>
    </g>
</svg>
