<svg width="18" height="18" viewBox="0 0 18 18" xmlns="http://www.w3.org/2000/svg"><path d="M2.793 2.311c-.234 0-.438-.007-.613-.02a.953.953 0 0 1-.448-.137.792.792 0 0 1-.292-.352c-.071-.157-.113-.379-.126-.666.013-.261.055-.467.126-.617a.737.737 0 0 1 .292-.333A1.13 1.13 0 0 1 2.18.05c.175-.02.38-.036.613-.049h12.492c.26.013.49.03.691.049.201.02.373.065.516.137a.744.744 0 0 1 .33.333c.078.15.13.356.156.617-.026.274-.078.486-.156.636a.801.801 0 0 1-.33.343 1.331 1.331 0 0 1-.516.147c-.201.02-.431.036-.69.049h-4.398v8.03c-.026.587-.176 1.024-.448 1.312-.272.287-.727.43-1.362.43-.584 0-1.012-.143-1.284-.43-.273-.288-.429-.725-.467-1.312V2.31H2.793zM18 14.453c-.007.092-.127.235-.36.431a44.24 44.24 0 0 0-.827.676l-.925.773c-.31.262-.619.516-.924.764-.305.248-.574.47-.807.666-.234.196-.422.258-.565.186-.142-.072-.214-.251-.214-.538 0-.157-.006-.366-.02-.627a4.972 4.972 0 0 1 0-.627c0-.209-.09-.34-.272-.392a2.686 2.686 0 0 0-.72-.078h-.525c-.208 0-.431-.003-.671-.01-.24-.006-.49-.01-.75-.01H8.552c-.337 0-.687-.003-1.05-.01-.364-.006-.714-.009-1.051-.009h-.837c-.22 0-.386.026-.496.078-.11.053-.172.17-.185.353 0 .183-.006.42-.02.715a6.104 6.104 0 0 0 0 .695c0 .287-.09.454-.272.5-.181.045-.408-.043-.68-.265-.247-.209-.533-.431-.857-.666-.324-.235-.655-.473-.992-.715-.338-.241-.665-.476-.983-.705-.318-.228-.587-.44-.808-.636-.22-.183-.327-.32-.32-.412.006-.091.126-.228.36-.41.246-.197.534-.425.865-.686.331-.261.672-.523 1.022-.784.35-.26.69-.519 1.021-.773.331-.255.613-.474.847-.656.233-.196.425-.255.574-.177.149.079.224.255.224.53 0 .169.003.381.01.636.006.254.01.453.01.597 0 .222.083.343.252.362.169.02.402.03.7.03.299 0 .691.003 1.178.01.486.006.944.01 1.372.01h1.05c.377 0 .763.003 1.158.009.396.007.775.01 1.139.01h.895c.207 0 .37-.026.486-.079.117-.052.175-.176.175-.372 0-.182.007-.401.02-.656.013-.254.02-.466.02-.636-.014-.274.067-.438.242-.49.176-.052.4.033.672.255.246.209.519.43.817.666.298.235.6.476.905.724.305.248.603.487.895.715.292.229.548.434.769.617.22.183.327.32.32.411z" fill="currentColor" fillRule="nonzero" /></svg>
