<?xml version="1.0" encoding="UTF-8"?>
<svg width="30px" height="28px" viewBox="0 0 30 28" version="1.1" xmlns="http://www.w3.org/2000/svg" xmlns:xlink="http://www.w3.org/1999/xlink">
    <g stroke="none" stroke-width="1" fill="none" fill-rule="evenodd">
        <g transform="translate(-15.000000, -222.000000)" fill="#000000" fill-rule="nonzero">
            <g transform="translate(0.000000, 99.000000)">
                <g transform="translate(15.000000, 123.000000)">
                    <path d="M25.6137931,11.3936618 C22.5486207,11.3936618 20.9286207,14.3721838 19.6272414,16.766146 C18.7924138,18.3000901 17.9296552,19.8855512 17.0824138,19.9717633 C16.1596552,19.7856714 15.5275862,19.2095224 14.7982759,18.5471613 C13.772069,17.6124962 12.6165517,16.5663863 10.5806897,16.6431361 C8.09793103,16.7524782 5.85310345,18.5387504 3.90827586,21.9556924 C3.62204001,22.4582483 3.79085953,23.1014775 4.28534483,23.3923851 C4.77983012,23.6832927 5.41272966,23.5117178 5.69896552,23.0091619 C7.2662069,20.254581 8.93896552,18.8205167 10.6686207,18.7437669 C11.8624138,18.6964554 12.51,19.2883749 13.4162069,20.1126464 C14.2851724,20.9043256 15.27,21.8000901 16.8393103,22.0639832 C16.8950196,22.0736236 16.9514202,22.0785469 17.007931,22.0787023 C19.0996552,22.0787023 20.2872414,19.8950135 21.4355172,17.783869 C22.352069,16.0974767 23.2944828,14.366927 24.5772414,13.7403124 L24.5772414,25.8962151 L2.06896552,25.8962151 L2.06896552,4.94142385 L17.85,4.94142385 C18.4213291,4.94142385 18.8844828,4.47071091 18.8844828,3.89005707 C18.8844828,3.30940324 18.4213291,2.8386903 17.85,2.8386903 L1.03448276,2.8386903 C0.463153707,2.8386903 0,3.30940324 0,3.89005707 L0,26.9486332 C0,27.5292871 0.463153707,28 1.03448276,28 L25.6137931,28 C26.1851222,28 26.6482759,27.5292871 26.6482759,26.9486332 L26.6482759,12.4450285 C26.6482759,11.8643747 26.1851222,11.3936618 25.6137931,11.3936618 Z"></path>
                    <path d="M3.78103448,11.2706518 C3.78103448,13.1746771 5.30586207,14.7243917 7.17931034,14.7243917 C9.05275862,14.7243917 10.5775862,13.1746771 10.5775862,11.2706518 C10.5775862,9.36662661 9.05275862,7.81796335 7.17931034,7.81796335 C5.30586207,7.81796335 3.78103448,9.36662661 3.78103448,11.2706518 L3.78103448,11.2706518 Z M8.50862069,11.2706518 C8.48045605,11.9960681 7.89363252,12.5693999 7.17931034,12.5693999 C6.46498817,12.5693999 5.87816464,11.9960681 5.85,11.2706518 C5.87816464,10.5452356 6.46498817,9.97190376 7.17931034,9.97190376 C7.89363252,9.97190376 8.48045605,10.5452356 8.50862069,11.2706518 Z M28.9655172,3.06788825 L26.9813793,3.06788825 L26.9813793,1.05136678 C26.9813793,0.470712939 26.5182256,0 25.9468966,0 C25.3755675,0 24.9124138,0.470712939 24.9124138,1.05136678 L24.9124138,3.06683689 L22.262069,3.06683689 C21.6907399,3.06683689 21.2275862,3.53754983 21.2275862,4.11820366 C21.2275862,4.6988575 21.6907399,5.16957044 22.262069,5.16957044 L24.9124138,5.16957044 L24.9124138,7.86317212 C24.9124138,8.44382596 25.3755675,8.9145389 25.9468966,8.9145389 C26.5182256,8.9145389 26.9813793,8.44382596 26.9813793,7.86317212 L26.9813793,5.17062181 L28.9655172,5.17062181 C29.5368463,5.17062181 30,4.69990887 30,4.11925503 C30,3.53860119 29.5368463,3.06788825 28.9655172,3.06788825 Z"></path>
                </g>
            </g>
        </g>
    </g>
</svg>
