  <svg width="20" height="20" viewBox="0 0 20 20" xmlns="http://www.w3.org/2000/svg">
    <path
      d="M13.846 13.846h3.077V10.77H20v4.616h-3.077v1.538h-3.077v-1.538H10.77v-4.616h3.077v3.077zM0 10.77h9.23V20H0v-9.23zm3.077 3.077v3.077h3.077v-3.077H3.077zM0 0h9.23v9.23H0V0zm3.077 3.077v3.077h3.077V3.077H3.077zM10.769 0H20v9.23h-9.23V0zm3.077 3.077v3.077h3.077V3.077h-3.077zm3.077 13.846H20V20h-3.077v-3.077zm-6.154 0h3.077V20H10.77v-3.077z"
      fill="currentColor"
      fillRule="nonzero"
    />
  </svg>
