<svg t="1657510100931" class="icon" viewBox="0 0 1024 1024" version="1.1" xmlns="http://www.w3.org/2000/svg" p-id="7620" width="200" height="200"><path d="M249.984 841.984l0-269.994667 148.010667 356.010667-61.994667 0q-34.005333 0-59.989333-25.984t-25.984-59.989333zM336 374.016q18.005333 0 29.994667-13.013333t11.989333-31.018667-11.989333-29.994667-29.994667-11.989333-29.994667 11.989333-11.989333 29.994667 11.989333 31.018667 29.994667 13.013333zM939.989333 680.021333q13.994667 32 0 64.981333t-45.994667 47.018667l-313.984 130.005333q-16 6.016-34.005333 6.016-56.021333 0-77.994667-52.010667l-212.010667-512q-6.016-18.005333-6.016-34.005333 0-54.016 52.010667-75.989333l315.989333-130.005333q18.005333-6.016 34.005333-6.016 54.016 0 75.989333 52.010667zM107.989333 838.016q-32-13.994667-45.994667-45.994667t0-64l104.021333-249.984 0 384z" p-id="7621"></path></svg>
