<svg width="20" height="18" viewBox="0 0 20 18" xmlns="http://www.w3.org/2000/svg"><path d="M10.85.444a.86.86 0 0 1 .419.188c.149.112.285.253.408.424.123.171.224.365.302.582.077.218.116.431.116.642 0 .184-.039.378-.116.582a2.671 2.671 0 0 1-.302.572c-.123.178-.26.323-.408.435a.86.86 0 0 1-.418.187H7.214v12.296a1.866 1.866 0 0 1-.272.878c-.155.243-.46.365-.914.365-.285 0-.548-.095-.787-.286-.24-.19-.373-.51-.399-.957V4.056H1.264c-.233 0-.425-.053-.574-.158a1.26 1.26 0 0 1-.37-.414 2.005 2.005 0 0 1-.213-.573A7.137 7.137 0 0 1 0 2.28a2.442 2.442 0 0 1 .36-1.234A1.5 1.5 0 0 1 .758.612a.849.849 0 0 1 .506-.168h9.587zm7.565 3.652c-.168.026-.272.085-.311.177a1.051 1.051 0 0 0-.058.395c0 .197.003.45.01.76l.019.977c.006.342.01.67.01.987v.77c.013.13 0 .262-.04.394v.06c0 .144.004.42.01.828.007.408.01.852.01 1.332 0 .48.003.938.01 1.372.006.434.01.743.01.928 0 .25.026.447.077.592.052.144.169.217.35.217h.875c.234 0 .383.062.448.187s.013.286-.156.484c-.155.197-.337.434-.544.71a156.884 156.884 0 0 1-1.293 1.698c-.214.276-.406.52-.574.73-.156.197-.302.3-.438.306-.136.006-.288-.083-.457-.267a71.617 71.617 0 0 0-.544-.68 155.855 155.855 0 0 1-1.293-1.619c-.214-.27-.405-.51-.574-.72-.194-.224-.272-.412-.233-.563.039-.151.181-.227.428-.227.142 0 .33-.003.563-.01.234-.006.428-.016.584-.03.155 0 .253-.045.292-.137a1.12 1.12 0 0 0 .058-.415v-.947c0-.448-.003-.918-.01-1.411a1045.8 1045.8 0 0 0-.02-1.412 75.61 75.61 0 0 1-.009-.967c0-.118.02-.236.058-.355v-.099c0-.131-.003-.335-.01-.611l-.019-.898c-.006-.323-.01-.642-.01-.958v-.73c0-.263-.022-.464-.068-.602-.045-.138-.158-.207-.34-.207-.143 0-.292-.007-.447-.02a5.313 5.313 0 0 0-.447-.02c-.22.027-.367-.026-.438-.157-.071-.132-.03-.303.126-.513l.555-.701c.214-.27.43-.55.651-.839.22-.29.434-.572.642-.849.207-.276.395-.52.564-.73.168-.197.32-.3.457-.306.136-.006.282.083.437.267.156.197.34.424.554.68.214.257.431.524.652.8.22.276.437.546.651.81.214.262.405.5.574.71.194.236.272.43.233.582-.039.151-.181.227-.428.227a3.975 3.975 0 0 0-.563 0c-.234.013-.428.02-.584.02z" fill="currentColor" fillRule="nonzero" /></svg>
